<?xml version="1.0" encoding="utf-8"?>
<!-- Generator: Adobe Illustrator 24.0.1, SVG Export Plug-In . SVG Version: 6.00 Build 0)  -->
<svg version="1.1" id="Layer_1" xmlns="http://www.w3.org/2000/svg" xmlns:xlink="http://www.w3.org/1999/xlink" x="0px" y="0px"
	 viewBox="0 0 647.6 402.6" style="enable-background:new 0 0 647.6 402.6;" xml:space="preserve">
<style type="text/css">
	.st0{fill:#FFFFFF;}
</style>
<path class="st0" d="M119.4,58.7c1.1,0,1.9,0.3,2.6,1L144.3,74c0.8,0.8,1.2,1.7,1.2,2.9c0,1-0.5,2-1.2,2.8L68.4,188.1h569.1v40H68.4
	L145,343.2c1,0.9,1.2,2,1.3,2.9c0,1.1-0.4,2-1.2,2.8L122.9,365c-0.8,0.8-1.7,1.2-2.8,1.2c-1,0-2-0.4-2.7-1.2L11.2,210.9
	c-0.8-0.8-1.2-1.7-1.2-2.9c0-1,0.4-2,1.2-2.7L116.4,60C117.3,59.1,118.3,58.7,119.4,58.7z"/>
</svg>
