<?xml version="1.0" encoding="utf-8"?>
<!-- Generator: Adobe Illustrator 24.0.1, SVG Export Plug-In . SVG Version: 6.00 Build 0)  -->
<svg version="1.1" id="Layer_1" xmlns="http://www.w3.org/2000/svg" xmlns:xlink="http://www.w3.org/1999/xlink" x="0px" y="0px"
	 viewBox="0 0 647.6 402.6" style="enable-background:new 0 0 647.6 402.6;" xml:space="preserve">
<style type="text/css">
	.st0{fill:#111111;}
</style>
<path class="st0" d="M528.1,366.2c-1.1,0-1.9-0.3-2.6-1l-22.3-14.3c-0.8-0.8-1.2-1.7-1.2-2.9c0-1,0.5-2,1.2-2.8l75.9-108.4H10v-40
	h569.1L502.5,81.7c-1-0.9-1.2-2-1.3-2.9c0-1.1,0.4-2,1.2-2.8l22.2-16.1c0.8-0.8,1.7-1.2,2.8-1.2c1,0,2,0.4,2.7,1.2L636.3,214
	c0.8,0.8,1.2,1.7,1.2,2.9c0,1-0.4,2-1.2,2.7L531.1,364.9C530.2,365.8,529.2,366.2,528.1,366.2z"/>
</svg>
